<?xml version="1.0" encoding="UTF-8" standalone="no"?>
<!-- Created with Inkscape (http://www.inkscape.org/) -->

<svg
   xmlns:dc="http://purl.org/dc/elements/1.1/"
   xmlns:cc="http://creativecommons.org/ns#"
   xmlns:rdf="http://www.w3.org/1999/02/22-rdf-syntax-ns#"
   xmlns:svg="http://www.w3.org/2000/svg"
   xmlns="http://www.w3.org/2000/svg"
   xmlns:sodipodi="http://sodipodi.sourceforge.net/DTD/sodipodi-0.dtd"
   xmlns:inkscape="http://www.inkscape.org/namespaces/inkscape"
   width="210mm"
   height="297mm"
   viewBox="0 0 210 297"
   version="1.1"
   id="svg8"
   inkscape:version="0.92.4 (5da689c313, 2019-01-14)"
   sodipodi:docname="wifi_modem_label.svg"
   inkscape:export-filename="\\NAS8T\SharedData\Projekte\_Eigene\C64-Projects\C64 WiFi Modem User Port\Case\label\inkscape\WiFi_Modem_label.png"
   inkscape:export-xdpi="299"
   inkscape:export-ydpi="299">
  <defs
     id="defs2">
    <marker
       style="overflow:visible"
       refY="0.0"
       refX="0.0"
       orient="auto"
       id="DistanceX">
      <path
         id="path4749"
         style="stroke:#000000; stroke-width:0.5"
         d="M 3,-3 L -3,3 M 0,-5 L  0,5" />
    </marker>
    <pattern
       y="0"
       x="0"
       width="8"
       patternUnits="userSpaceOnUse"
       id="Hatch"
       height="8">
      <path
         id="path4752"
         stroke-width="0.25"
         stroke="#000000"
         linecap="square"
         d="M8 4 l-4,4" />
      <path
         id="path4754"
         stroke-width="0.25"
         stroke="#000000"
         linecap="square"
         d="M6 2 l-4,4" />
      <path
         id="path4756"
         stroke-width="0.25"
         stroke="#000000"
         linecap="square"
         d="M4 0 l-4,4" />
    </pattern>
    <symbol
       id="*MODEL_SPACE" />
    <symbol
       id="*PAPER_SPACE" />
    <marker
       style="overflow:visible"
       refY="0.0"
       refX="0.0"
       orient="auto"
       id="DistanceX-6">
      <path
         id="path5160"
         style="stroke:#000000; stroke-width:0.5"
         d="M 3,-3 L -3,3 M 0,-5 L  0,5" />
    </marker>
    <pattern
       y="0"
       x="0"
       width="8"
       patternUnits="userSpaceOnUse"
       id="Hatch-5"
       height="8">
      <path
         id="path5163"
         stroke-width="0.25"
         stroke="#000000"
         linecap="square"
         d="M8 4 l-4,4" />
      <path
         id="path5165"
         stroke-width="0.25"
         stroke="#000000"
         linecap="square"
         d="M6 2 l-4,4" />
      <path
         id="path5167"
         stroke-width="0.25"
         stroke="#000000"
         linecap="square"
         d="M4 0 l-4,4" />
    </pattern>
    <symbol
       id="*MODEL_SPACE-9" />
    <symbol
       id="*PAPER_SPACE-8" />
  </defs>
  <sodipodi:namedview
     id="base"
     pagecolor="#ffffff"
     bordercolor="#666666"
     borderopacity="1.0"
     inkscape:pageopacity="0.0"
     inkscape:pageshadow="2"
     inkscape:zoom="1.7212891"
     inkscape:cx="246.85181"
     inkscape:cy="801.34609"
     inkscape:document-units="mm"
     inkscape:current-layer="layer1"
     showgrid="false"
     inkscape:window-width="2560"
     inkscape:window-height="1411"
     inkscape:window-x="-9"
     inkscape:window-y="-9"
     inkscape:window-maximized="1"
     showguides="true"
     inkscape:guide-bbox="true" />
  <metadata
     id="metadata5">
    <rdf:RDF>
      <cc:Work
         rdf:about="">
        <dc:format>image/svg+xml</dc:format>
        <dc:type
           rdf:resource="http://purl.org/dc/dcmitype/StillImage" />
        <dc:title></dc:title>
      </cc:Work>
    </rdf:RDF>
  </metadata>
  <g
     inkscape:label="Ebene 1"
     inkscape:groupmode="layer"
     id="layer1">
    <g
       id="g10391"
       transform="translate(-39.350354,-112.20999)">
      <g
         id="g5551">
        <path
           style="fill:none;stroke:#000000;stroke-width:0.1;stroke-miterlimit:4;stroke-dasharray:none"
           d="M 47.955173,173.13687 H 117.25517"
           id="path5174"
           inkscape:connector-curvature="0" />
        <path
           style="fill:none;stroke:#000000;stroke-width:0.1;stroke-miterlimit:4;stroke-dasharray:none"
           d="m 46.955173,172.13685 a 1.0000001,1.0000001 0 0 0 1,1.00002"
           id="path5176"
           inkscape:connector-curvature="0" />
        <path
           style="fill:none;stroke:#000000;stroke-width:0.1;stroke-miterlimit:4;stroke-dasharray:none"
           d="m 46.955173,120.13686 v 51.99999"
           id="path5178"
           inkscape:connector-curvature="0" />
        <path
           style="fill:none;stroke:#000000;stroke-width:0.37795275;stroke-miterlimit:4;stroke-dasharray:none"
           d="m 414.82268,654.37556 h 28.34646 c 2.08739,0 3.77956,-1.69221 3.77952,-3.7796 v -196.5354 c -3e-5,-2.08735 -1.69217,-3.77949 -3.77952,-3.77949 H 181.2479 c -2.08736,0 -3.77951,1.69214 -3.77953,3.77949 v 196.5354 c -4e-5,2.08739 1.69212,3.7796 3.77953,3.7796 h 28.34646"
           id="path5182"
           transform="scale(0.26458333)"
           inkscape:connector-curvature="0"
           sodipodi:nodetypes="csccssccsc" />
        <path
           style="fill:none;stroke:#000000;stroke-width:0.1;stroke-miterlimit:4;stroke-dasharray:none"
           d="m 65.605173,125.53688 a 1.65,1.65 0 1 0 -3.3,0 1.65,1.65 0 1 0 3.3,0 z"
           id="path5194"
           inkscape:connector-curvature="0" />
        <path
           style="fill:none;stroke:#000000;stroke-width:0.1;stroke-miterlimit:4;stroke-dasharray:none"
           d="m 69.605173,125.53688 a 1.65,1.65 0 1 0 -3.3,0 1.65,1.65 0 1 0 3.3,0 z"
           id="path5200"
           inkscape:connector-curvature="0" />
        <path
           style="fill:none;stroke:#000000;stroke-width:0.1;stroke-miterlimit:4;stroke-dasharray:none"
           d="m 73.605173,125.53688 a 1.65,1.65 0 1 0 -3.3,0 1.65,1.65 0 1 0 3.3,0 z"
           id="path5202"
           inkscape:connector-curvature="0" />
        <path
           style="fill:none;stroke:#000000;stroke-width:0.1;stroke-miterlimit:4;stroke-dasharray:none"
           d="m 77.605173,125.53688 a 1.65,1.65 0 1 0 -3.3,0 1.65,1.65 0 1 0 3.3,0 z"
           id="path5204"
           inkscape:connector-curvature="0" />
        <path
           style="fill:none;stroke:#000000;stroke-width:0.1;stroke-miterlimit:4;stroke-dasharray:none"
           d="m 81.605173,125.53688 a 1.65,1.65 0 1 0 -3.3,0 1.65,1.65 0 1 0 3.3,0 z"
           id="path5206"
           inkscape:connector-curvature="0" />
        <path
           style="fill:none;stroke:#000000;stroke-width:0.1;stroke-miterlimit:4;stroke-dasharray:none"
           d="m 85.605173,125.53688 a 1.65,1.65 0 1 0 -3.3,0 1.65,1.65 0 1 0 3.3,0 z"
           id="path5208"
           inkscape:connector-curvature="0" />
        <path
           style="fill:none;stroke:#000000;stroke-width:0.1;stroke-miterlimit:4;stroke-dasharray:none"
           d="m 107.85517,162.23686 a 2.5,2.5 0 1 0 -5,0 2.5,2.5 0 1 0 5,0 z"
           id="path5244"
           inkscape:connector-curvature="0" />
        <path
           style="fill:none;stroke:#000000;stroke-width:0.1;stroke-miterlimit:4;stroke-dasharray:none"
           d="M 118.25517,172.13685 V 120.13686"
           id="path5258"
           inkscape:connector-curvature="0" />
        <text
           xml:space="preserve"
           style="font-style:normal;font-variant:normal;font-weight:normal;font-stretch:normal;font-size:3.52777767px;line-height:1;font-family:'Microgramma D Extended';-inkscape-font-specification:'Microgramma D Extended';font-variant-ligatures:normal;font-variant-caps:normal;font-variant-numeric:normal;text-align:center;letter-spacing:0px;word-spacing:0px;writing-mode:lr-tb;text-anchor:middle;fill:#000000;fill-opacity:1;stroke:none;stroke-width:0.26458332"
           x="105.33136"
           y="159.04318"
           id="text5484"><tspan
             sodipodi:role="line"
             id="tspan5482"
             x="105.33136"
             y="159.04318"
             style="stroke-width:0.26458332">RESET</tspan></text>
        <g
           id="g5522"
           transform="translate(1.1336284,0.07685616)">
          <text
             inkscape:transform-center-y="-5.4888967"
             inkscape:transform-center-x="1.4673288"
             transform="rotate(-90)"
             id="text5488"
             y="63.956768"
             x="-128.23845"
             style="font-style:normal;font-variant:normal;font-weight:normal;font-stretch:normal;font-size:3.52777767px;line-height:1;font-family:'Microgramma D Extended';-inkscape-font-specification:'Microgramma D Extended';font-variant-ligatures:normal;font-variant-caps:normal;font-variant-numeric:normal;text-align:end;letter-spacing:0px;word-spacing:0px;writing-mode:lr-tb;text-anchor:end;fill:#000000;fill-opacity:1;stroke:none;stroke-width:0.26458332"
             xml:space="preserve"><tspan
               style="stroke-width:0.26458332"
               y="63.956768"
               x="-128.23845"
               id="tspan5486"
               sodipodi:role="line">DCD</tspan></text>
          <text
             transform="rotate(-90)"
             id="text5492"
             y="67.966942"
             x="-128.25725"
             style="font-style:normal;font-variant:normal;font-weight:normal;font-stretch:normal;font-size:3.52777767px;line-height:1;font-family:'Microgramma D Extended';-inkscape-font-specification:'Microgramma D Extended';font-variant-ligatures:normal;font-variant-caps:normal;font-variant-numeric:normal;text-align:end;letter-spacing:0px;word-spacing:0px;writing-mode:lr-tb;text-anchor:end;fill:#000000;fill-opacity:1;stroke:none;stroke-width:0.26458332"
             xml:space="preserve"><tspan
               style="stroke-width:0.26458332"
               y="67.966942"
               x="-128.25725"
               id="tspan5490"
               sodipodi:role="line">CTS</tspan></text>
          <text
             transform="rotate(-90)"
             id="text5496"
             y="71.977119"
             x="-128.25725"
             style="font-style:normal;font-variant:normal;font-weight:normal;font-stretch:normal;font-size:3.52777767px;line-height:1;font-family:'Microgramma D Extended';-inkscape-font-specification:'Microgramma D Extended';font-variant-ligatures:normal;font-variant-caps:normal;font-variant-numeric:normal;text-align:end;letter-spacing:0px;word-spacing:0px;writing-mode:lr-tb;text-anchor:end;fill:#000000;fill-opacity:1;stroke:none;stroke-width:0.26458332"
             xml:space="preserve"><tspan
               style="stroke-width:0.26458332"
               y="71.977119"
               x="-128.25725"
               id="tspan5494"
               sodipodi:role="line">RTS</tspan></text>
          <text
             transform="rotate(-90)"
             id="text5500"
             y="75.987289"
             x="-128.3875"
             style="font-style:normal;font-variant:normal;font-weight:normal;font-stretch:normal;font-size:3.52777767px;line-height:1;font-family:'Microgramma D Extended';-inkscape-font-specification:'Microgramma D Extended';font-variant-ligatures:normal;font-variant-caps:normal;font-variant-numeric:normal;text-align:end;letter-spacing:0px;word-spacing:0px;writing-mode:lr-tb;text-anchor:end;fill:#000000;fill-opacity:1;stroke:none;stroke-width:0.26458332"
             xml:space="preserve"><tspan
               style="stroke-width:0.26458332"
               y="75.987289"
               x="-128.3875"
               id="tspan5498"
               sodipodi:role="line">TX</tspan></text>
          <text
             transform="rotate(-90)"
             id="text5504"
             y="79.997467"
             x="-128.3875"
             style="font-style:normal;font-variant:normal;font-weight:normal;font-stretch:normal;font-size:3.52777767px;line-height:1;font-family:'Microgramma D Extended';-inkscape-font-specification:'Microgramma D Extended';font-variant-ligatures:normal;font-variant-caps:normal;font-variant-numeric:normal;text-align:end;letter-spacing:0px;word-spacing:0px;writing-mode:lr-tb;text-anchor:end;fill:#000000;fill-opacity:1;stroke:none;stroke-width:0.26458332"
             xml:space="preserve"><tspan
               style="stroke-width:0.26458332"
               y="79.997467"
               x="-128.3875"
               id="tspan5502"
               sodipodi:role="line">RX</tspan></text>
          <text
             transform="rotate(-90)"
             id="text5508"
             y="84.007645"
             x="-128.25725"
             style="font-style:normal;font-variant:normal;font-weight:normal;font-stretch:normal;font-size:3.52777767px;line-height:1;font-family:'Microgramma D Extended';-inkscape-font-specification:'Microgramma D Extended';font-variant-ligatures:normal;font-variant-caps:normal;font-variant-numeric:normal;text-align:end;letter-spacing:0px;word-spacing:0px;writing-mode:lr-tb;text-anchor:end;fill:#000000;fill-opacity:1;stroke:none;stroke-width:0.26458332"
             xml:space="preserve"><tspan
               style="stroke-width:0.26458332"
               y="84.007645"
               x="-128.25725"
               id="tspan5506"
               sodipodi:role="line">STATUS</tspan></text>
        </g>
      </g>
      <g
         transform="translate(0.10869103,-2.0923022)"
         id="g10344">
        <text
           xml:space="preserve"
           style="font-style:normal;font-variant:normal;font-weight:normal;font-stretch:normal;font-size:3.52777767px;line-height:1;font-family:'Microgramma D Extended';-inkscape-font-specification:'Microgramma D Extended';font-variant-ligatures:normal;font-variant-caps:normal;font-variant-numeric:normal;text-align:end;letter-spacing:0px;word-spacing:0px;writing-mode:lr-tb;text-anchor:end;fill:#000000;fill-opacity:1;stroke:none;stroke-width:0.26458332"
           x="72.807587"
           y="166.89685"
           id="text5555"><tspan
             sodipodi:role="line"
             id="tspan5553"
             x="72.807587"
             y="166.89685"
             style="font-size:5.64444447px;text-align:center;text-anchor:middle;stroke-width:0.26458332">WiFi Modem</tspan></text>
        <g
           id="g13050"
           transform="matrix(0.72585624,0,0,0.72585624,-39.325393,90.651579)"
           style="stroke-width:1.37768328">
          <g
             transform="translate(0.85940575,-0.16188155)"
             id="g13037"
             style="stroke-width:1.37768328">
            <polygon
               style="fill:#e2001a;fill-rule:evenodd;stroke-width:1.37768328"
               id="polygon7"
               points="319.269,411.131 319.269,408.062 434.238,408.062 434.238,411.131 "
               transform="matrix(0.26458333,0,0,0.26458333,50.60586,-18.461077)" />
            <polygon
               style="fill:#e95e38;fill-rule:evenodd;stroke-width:1.37768328"
               id="polygon9"
               points="319.269,417.269 319.269,414.2 434.238,414.2 434.238,417.269 "
               transform="matrix(0.26458333,0,0,0.26458333,50.60586,-18.461077)" />
            <polygon
               style="fill:#ffcc00;fill-rule:evenodd;stroke-width:1.37768328"
               id="polygon11"
               points="319.269,423.406 319.269,420.337 434.238,420.337 434.238,423.406 "
               transform="matrix(0.26458333,0,0,0.26458333,50.60586,-18.461077)" />
            <polygon
               style="fill:#57ab27;fill-rule:evenodd;stroke-width:1.37768328"
               id="polygon13"
               points="319.269,429.544 319.269,426.475 434.238,426.475 434.238,429.544 "
               transform="matrix(0.26458333,0,0,0.26458333,50.60586,-18.461077)" />
            <polygon
               style="fill:#009ee0;fill-rule:evenodd;stroke-width:1.37768328"
               id="polygon15"
               points="319.269,435.682 319.269,432.613 434.238,432.613 434.238,435.682 "
               transform="matrix(0.26458333,0,0,0.26458333,50.60586,-18.461077)" />
          </g>
          <g
             transform="translate(50.206881,-0.16188145)"
             id="g13030"
             style="stroke-width:1.37768328">
            <path
               inkscape:connector-curvature="0"
               style="fill:#000080;stroke-width:0.36451203"
               d="m 82.612241,93.326967 h -1.759744 v 1.443302 h 3.163094 z"
               id="path13020" />
            <path
               inkscape:connector-curvature="0"
               style="fill:#000080;stroke-width:0.36451203"
               d="m 84.015326,91.587597 h -3.163093 v 1.443037 h 1.7399 z"
               id="path13018" />
            <path
               inkscape:connector-curvature="0"
               style="fill:#000080;stroke-width:0.36451203"
               d="m 80.753543,91.488642 v -1.858168 c -0.375444,-0.09895 -0.632883,-0.138642 -1.008063,-0.138642 -1.957387,0 -3.677179,1.64121 -3.677179,3.677179 0,2.095765 1.739371,3.6576 3.696759,3.6576 0.355864,0 0.553508,-0.03969 0.988483,-0.15875 v -1.897592 c -0.43524,0.217223 -0.652198,0.27649 -1.008063,0.27649 -1.087437,0 -1.918229,-0.909108 -1.918229,-1.917435 0,-1.047486 0.810684,-1.937544 1.898121,-1.937544 0.375973,0 0.69215,0.09922 1.028171,0.296862 z"
               id="path12994" />
          </g>
          <path
             inkscape:connector-curvature="0"
             d="M 172.25201,94.300418 V 93.88343 c 0,-0.147373 -0.0487,-0.240507 -0.14578,-0.27993 -0.0966,-0.03889 -0.30692,-0.059 -0.62997,-0.059 h -0.41963 c -0.32359,0 -0.53525,0.01826 -0.63553,0.0553 -0.10081,0.03625 -0.15081,0.130969 -0.15081,0.283369 v 0.416983 c 0,0.157956 0.05,0.256381 0.15081,0.295275 0.10028,0.03916 0.31221,0.05927 0.63553,0.05927 h 0.41963 c 0.3302,0 0.54213,-0.01984 0.63553,-0.05927 0.0931,-0.03863 0.14022,-0.137054 0.14022,-0.295009 z m 6.9522,-0.779463 v -1.897327 l -1.88463,1.897327 z m 3.10091,1.267619 h -0.92604 v 1.071033 h -2.17514 v -1.071033 h -3.93091 l 0.0109,-1.558925 3.11255,-3.094567 h 2.98265 v 3.385873 h 0.92604 z m -7.87797,-0.401378 c 0,1.028965 -0.90434,1.543315 -2.71409,1.543315 h -0.92604 c -1.01971,0 -1.72641,-0.176213 -2.12143,-0.527315 -0.39529,-0.351896 -0.59214,-0.960967 -0.59214,-1.827212 v -1.165225 c 0,-0.860954 0.19685,-1.467115 0.59214,-1.819011 0.39476,-0.351896 1.10172,-0.527579 2.12143,-0.527579 h 0.92604 c 0.84032,0 1.47214,0.112713 1.89547,0.338667 0.42387,0.225954 0.63553,0.556419 0.63553,0.992187 v 0.417513 h -2.17567 v -0.14949 c 0,-0.136525 -0.0392,-0.225954 -0.11826,-0.268023 -0.0791,-0.0418 -0.23707,-0.06323 -0.47387,-0.06323 H 170.959 c -0.29396,0 -0.4826,0.02381 -0.56489,0.07117 -0.0828,0.0471 -0.12409,0.159808 -0.12409,0.338402 v 0.802746 c 0.31565,-0.173038 0.70697,-0.259292 1.17422,-0.259292 h 0.76438 c 0.76835,0 1.33006,0.12991 1.68566,0.389467 0.35507,0.259821 0.53287,0.6604 0.53287,1.200943 z"
             style="fill:#000080;stroke-width:0.36451203"
             id="path17" />
        </g>
      </g>
    </g>
  </g>
</svg>
